# xmcd
#
# Track frame offsets: 
#        150
#        14854
#        31133
#        52893
#        67842
#        82963
#        98066
#        111394
#        126129
#        143193
#        159428
#        173717
#        187379
#        200052
#        212392
#        225062
#        238875
#        255247
#        269073
#        282692
#
# Disc length: 3974 seconds
#
# Revision: 0
# Processed by: cddbd v1.5.2PL0 Copyright (c) Steve Scherf et al.
# Submitted via: ExactAudioCopyFreeDBPlugin 1.0
#
DISCID=1e0f8414
DTITLE=John Lee Hooker - Burning Hell
DYEAR=2015
DGENRE=Blues
TTITLE0=Burning Hell
TTITLE1=Graveyard Blues
TTITLE2=Baby Please Don't Go
TTITLE3=Jackson, Tennessee
TTITLE4=You Live Your Life And I'll Live Mine
TTITLE5=Smokestack Lightnin'
TTITLE6=How You Can Do It
TTITLE7=I Don't Want No Woman If Her Hair Ain't No Longer Than Mine
TTITLE8=I Rolled And Turned And Cried The Whole Night Long
TTITLE9=Blues For My Baby
TTITLE10=Key To The Highway
TTITLE11=Natchez Fire
TTITLE12=Hobo Blues
TTITLE13=Crawlin' King Snake
TTITLE14=I Can't Believe
TTITLE15=Worried Life Blues
TTITLE16=Five Long Years
TTITLE17=I Don't Want Your Money
TTITLE18=Take Me As I Am
TTITLE19=Tupelo (Live)
EXTD=
EXTT0=
EXTT1=
EXTT2=
EXTT3=
EXTT4=
EXTT5=
EXTT6=
EXTT7=
EXTT8=
EXTT9=
EXTT10=
EXTT11=
EXTT12=
EXTT13=
EXTT14=
EXTT15=
EXTT16=
EXTT17=
EXTT18=
EXTT19=
PLAYORDER=
